<svg width="32" height="32" viewBox="0 0 32 32" fill="none" xmlns="http://www.w3.org/2000/svg">
  <path fill="#F7F9FF" d="M22.7 17.1c0-3.2 2.6-4.8 2.7-4.9-1.5-2.2-3.8-2.5-4.6-2.5-2-.2-3.8 1.2-4.8 1.2-1 0-2.5-1.2-4.2-1.1-2.1 0-4.1 1.2-5.2 3.1-2.2 3.8-.6 9.5 1.6 12.6 1.1 1.5 2.3 3.2 4 3.1 1.6-.1 2.2-1 4.1-1 1.9 0 2.5 1 4.2 1 1.7 0 2.8-1.5 3.9-3.1 1.2-1.8 1.7-3.5 1.7-3.6-.1-.1-3.4-1.3-3.4-4.8Z"/>
  <path fill="#F7F9FF" d="M19.5 7.6c.9-1.1 1.5-2.6 1.3-4.1-1.3.1-2.8.8-3.7 1.9-.8.9-1.5 2.5-1.3 3.9 1.4.1 2.8-.6 3.7-1.7Z"/>
</svg>
