<svg xmlns="http://www.w3.org/2000/svg" width="32" height="32" viewBox="0 0 32 32">
  <defs>
    <linearGradient id="btc-c" x1="50%" x2="50%" y1="0%" y2="100%">
      <stop offset="0%" stop-color="#FFF" stop-opacity=".5"/>
      <stop offset="100%" stop-opacity=".5"/>
    </linearGradient>
  </defs>
  <circle cx="16" cy="16" r="15" fill="#F7931A"/>
  <circle cx="16" cy="16" r="14.5" fill="url(#btc-c)" opacity=".35"/>
  <path fill="#FFF" d="M22.25 14.05c.31-2.1-1.28-3.23-3.47-3.98l.71-2.84-1.73-.43-.69 2.76c-.45-.11-.92-.22-1.38-.33l.69-2.78-1.72-.43-.71 2.84c-.38-.08-.75-.17-1.1-.25l-2.39-.6-.46 1.85s1.28.29 1.26.31c.7.17.83.64.8 1.01l-.81 3.23c.05.02.11.04.18.06l-.18-.05-1.13 4.53c-.09.21-.3.53-.8.41.02.02-1.25-.32-1.25-.32l-.86 1.98 2.25.56c.42.1.83.21 1.23.31l-.71 2.87 1.72.43.71-2.84c.47.13.93.24 1.38.35l-.71 2.83 1.73.43.71-2.86c2.95.56 5.16.33 6.1-2.33.75-2.15-.04-3.39-1.59-4.19 1.13-.26 1.98-1 2.21-2.53Zm-3.95 5.54c-.53 2.15-4.15.99-5.32.7l.95-3.81c1.17.29 4.93.87 4.37 3.11Zm.53-5.57c-.49 1.95-3.5.96-4.47.72l.86-3.45c.97.24 4.12.69 3.61 2.73Z"/>
</svg>
