<svg width="30" height="30" viewBox="0 0 30 30" fill="none" xmlns="http://www.w3.org/2000/svg">
<path fill-rule="evenodd" clip-rule="evenodd" d="M15 28.875C22.663 28.875 28.875 22.663 28.875 15C28.875 7.33705 22.663 1.125 15 1.125C7.33709 1.125 1.12504 7.33705 1.12504 15C1.12504 22.663 7.33709 28.875 15 28.875ZM15 26.1251C8.85586 26.1251 3.87503 21.1442 3.87503 15C3.87503 8.85588 8.85586 3.87504 15 3.87504C21.1442 3.87504 26.1251 8.85588 26.1251 15C26.1251 21.1442 21.1442 26.1251 15 26.1251ZM7.71965 16.1232L12.5946 20.9982C12.8875 21.2911 13.3624 21.2911 13.6553 20.9982L22.2803 12.3732C22.5732 12.0803 22.5732 11.6054 22.2803 11.3125L21.2196 10.2519C20.9268 9.95898 20.4518 9.95898 20.1589 10.2519L13.125 17.2859L9.84095 14.0018C9.54806 13.7089 9.07316 13.7089 8.78028 14.0018L7.71965 15.0625C7.42676 15.3554 7.42676 15.8303 7.71965 16.1232Z" fill="url(#paint0_linear_65_635)"/>
<defs>
<linearGradient id="paint0_linear_65_635" x1="15" y1="1.125" x2="15" y2="28.875" gradientUnits="userSpaceOnUse">
<stop stop-color="#36C477"/>
<stop offset="1" stop-color="#1A5E39"/>
</linearGradient>
</defs>
</svg>
