<svg width="70" height="24" viewBox="0 0 70 24" fill="none" xmlns="http://www.w3.org/2000/svg">
  <path d="M27.3 2.3 23.1 21.7h-5.4L21.9 2.3h5.4ZM49.9 14.8l2.8-7.8 1.6 7.8h-4.4Zm6 6.9h5L56.5 2.3h-4.6c-1 0-1.9.6-2.3 1.5l-8.2 17.9h5.7l1.1-3.1h7l.7 3.1ZM41.7 15.4c0-5.1-7.1-5.4-7.1-7.7 0-.7.7-1.4 2.2-1.5 1.8-.2 3.5.3 5.1 1.1l.9-4.2c-1.6-.6-3.2-.9-4.9-.9-5.2 0-8.8 2.7-8.8 6.6 0 2.9 2.6 4.5 4.6 5.5 2 .9 2.7 1.5 2.7 2.4 0 1.3-1.6 1.9-3.1 1.9-2.1 0-4-.6-5.2-1.2l-.9 4.3c1.2.6 3.5 1.1 5.9 1.1 5.5 0 8.6-2.7 8.6-7.4ZM14.4 2.3 9.1 15.5 8.5 12.8C7.5 9.4 4.4 5.7 1 3.8l4.8 17.9h5.7L20 2.3h-5.6Z" fill="#F7F9FF"/>
  <path d="M4.2 2.3H.1L0 2.5c3.2.8 5.4 2.9 6.3 5.4L4.2 2.3Z" fill="#F7C833"/>
</svg>
